<?xml version="1.0" encoding="utf-8"?>
<!-- Generator: Adobe Illustrator 21.0.2, SVG Export Plug-In . SVG Version: 6.00 Build 0)  -->
<!DOCTYPE svg PUBLIC "-//W3C//DTD SVG 1.0//EN" "http://www.w3.org/TR/2001/REC-SVG-20010904/DTD/svg10.dtd">
<svg version="1.0" id="Layer_1" xmlns="http://www.w3.org/2000/svg" xmlns:xlink="http://www.w3.org/1999/xlink" x="0px" y="0px"
	 viewBox="0 0 481.4 129.8" style="enable-background:new 0 0 481.4 129.8;" xml:space="preserve">
<style type="text/css">
	.st0{fill:#FFFFFF;}
</style>
<g>
	<path d="M219.9,114.9c-1.7,0.1-3.3,0.2-4.8,0.3c-1.1,0.1-1.6,0.7-1.7,1.7c-0.1,1.4-0.2,2.8-0.3,4.2c-0.1,1.7-0.7,2.4-1.9,2.3
		c-1.1-0.1-1.8-0.7-1.9-1.9c-0.1-1.7-0.1-3.4-0.2-5c0-0.8-0.2-1.6-0.2-2.3c-0.3,0-0.5-0.1-0.6-0.1c-0.9,0.1-2.1,0-2.8,0.5
		c-0.6,0.4-0.7,1.5-0.8,2.4c-0.4,2-0.6,4-0.9,6.1c-1,0.2-1.5-0.1-1.8-1c-1-2.8-1.4-5.7-1.3-8.7c0.1-8.1,0.4-16.2,0.4-24.3
		c0-5.4-0.4-10.9-0.5-16.3c-0.1-2.5-0.1-5-0.1-7.6c0-0.9-0.2-1.5-1-2.1c-5.4-3.7-11-7.1-17.1-9.6c-11.9-4.9-23.4-10.6-34.6-16.8
		c-5.9-3.2-11.7-6.5-17.7-9.5c-2.4-1.2-5.2-1.8-7.8-2.6c-0.9-0.3-1.6,0.1-2.3,0.8c-0.8,0.8-1.8,1.7-2.8,2.2
		c-8.2,4-16.4,7.9-24.6,11.8c-1.3,0.6-2.7,0.9-4,1.4c-5.7,2.2-11.4,4.4-17,6.7c-7.2,2.9-14.1,6.2-20.7,10.2
		c-2.2,1.4-4.7,2.4-7.1,3.5c-1.2,0.6-1.8,1.4-1.8,2.7c-0.1,3.8-0.3,7.7-0.2,11.5c0.1,4.1,0.6,8.1,0.8,12.2c0.1,2.6,0.1,5.3,0.1,7.9
		c0,3.8-0.1,7.7-0.2,11.5c-0.1,2.4-0.5,4.9-0.4,7.3c0.1,2.1-0.1,4-0.8,5.9c-0.5,1.6-1.3,2.1-3.1,2c0-2.2-0.1-4.5,0-6.7
		c0-1-0.3-1.4-1.3-1.4c-0.3,0-0.6-0.1-0.8-0.1c-1.5-0.1-1.5-0.1-1.6,1.4c-0.1,1.9-0.2,3.8-0.2,5.7c0,1.3-0.7,2-1.9,2.1
		c-1.1,0.1-1.7-0.4-1.9-1.8c-0.2-1.3-0.2-2.6-0.2-3.9c-0.1-1.9-0.6-2.4-2.5-2.4c-1.3-0.1-2.6-0.2-4.1-0.3c0,0.5,0,1,0.1,1.5
		c0.3,2,0.1,4-0.6,5.9c-0.4,1.1-1.1,1.2-2,0.4c-1.4-1.4-1.9-3-1.5-4.9c0.2-1.2,0-2.2-1-2.8c-1.2-0.7-2.6-0.8-3.6,0.2
		c-0.5,0.5-0.6,1.5-0.6,2.2c0,1.2,0.2,2.4,0.3,3.6c0,1.5-0.6,2.2-2,2.2c-1.4,0-2.5-0.8-2.5-2.2c0-1.5,0-3,0-4.4
		c0-2.5-0.4-2.9-2.9-2.6c-0.6,0.1-1.3,0.1-1.9,0.1c-1.1,0-1.4,0.6-1.4,1.5c0.1,1.7,0.3,3.5,0.4,5.2c0.2,1.6-0.5,2.4-2,2.5
		c-1.6,0.1-2.3-0.5-2.3-2.2c0-7.3,0-14.6,0-22c0-0.8,0.3-1.4,1.2-1.5c0.7-0.1,1.4-0.3,2.1-0.2c0.9,0.1,1.5,0.7,1.5,1.7
		c0,1.3,0,2.6-0.1,3.8c0,1.1,0.5,1.6,1.5,1.7c0.6,0.1,1.1,0.1,1.7,0.1c2.3-0.1,2.5-0.5,2.7-2.8c0.1-1.3,0.4-2.6,0.8-3.8
		c0.4-1,1.7-1.6,2.8-1.3c1,0.3,1.1,1.3,1.2,2.1c0,1.3,0,2.6,0,4.1c1.6-0.1,3.1-0.2,4.6-0.2c0-1.3,0-2.6,0-3.8c0-1.9,0.7-2.9,1.8-2.8
		c1.6,0.1,2.9,1.6,2.9,3.2c0,1.2,0.1,2.4,0.3,3.5c0.1,0.3,0.6,0.8,1,0.9c0.9,0.2,1.8,0.3,2.7,0.4c0.9,0,1.8-0.9,1.8-1.8
		c0-1.1-0.2-2.2-0.2-3.3c0-1.1,0-2.2,0.2-3.2c0.3-1.1,1.5-1.9,2.4-1.7c1.1,0.2,1.4,1.2,1.5,2.1c0.2,1.5,0.2,3.1,0.3,4.7
		c0.1,2.5,0.4,2.7,3,2.4c0.1-12.7,0.3-25.4,0.4-38.4c-2,0.9-4,1.7-5.9,2.6c-0.8,0.4-1.6,0.5-2-0.3c-0.2-0.4,0.2-1.3,0.6-1.7
		c0.5-0.6,1.2-1,1.9-1.4c6.9-4.1,13.8-8.3,20.8-12.2c4-2.2,8.2-4.1,12.4-6c7.9-3.6,15.8-7.3,23.8-10.8c5-2.2,10.1-3.9,15.2-5.9
		c1.5-0.6,2.9-1.3,4.3-2.1c1.9-1,3.8-2.1,5.7-3.3c2.2-1.3,4.3-2.6,5.4-5.1c0.2-0.4,1-0.7,1.4-0.6c2.8,0.6,5.6,1.2,8,2.9
		c1.6,1.2,3.4,2.3,5.2,3.2c2,1,4.1,2.1,6.2,2.7c4.2,1.2,7.8,3.4,11.5,5.6c3.8,2.3,7.6,4.6,11.4,6.9c0.8,0.5,1.7,0.9,2.8,1.5
		c0.2-2.5,0.4-4.7,0.5-7c0.2-3.5,0.2-7,0.4-10.5c0.1-1.8,1.1-2.3,2.8-1.6c2.6,1.1,5.1,0.7,7.6-0.3c1.5-0.6,3-1.2,4.6-1.8
		c0.8-0.3,1.2-0.1,1.6,0.7c1.3,3.1,2.3,6.3,2.4,9.7c0,4.6-0.3,9.2-0.5,13.9c-0.1,2.1-0.4,4.3-0.6,6.4c1.7,0.8,3.4,1.7,5.2,2.5
		c3.2,1.4,5.9,3.6,8.7,5.7c3.4,2.5,7,4.7,10.5,7.1c0.6,0.4,1,1.1,1.3,1.7c0.3,0.6-0.2,1-0.9,0.9c-0.7-0.1-1.4-0.4-2-0.6
		c-1.3-0.5-2.6-1.1-4.3-1.9c0.4,6.5,1,12.8,1.2,19c0.2,6.2,0,12.4,0,18.7c0.3,0,0.5,0.1,0.7,0.1c2.4,0.1,2.6-0.2,2.7-2.6
		c0-1.6,0.1-3.1,0.2-4.7c0.1-0.9,0.4-1.8,1.5-1.9c1.1-0.1,2.2,0.4,2.4,1.6c0.2,1.6,0.1,3.2,0.1,4.8c0,0.6-0.1,1.3,0,1.9
		c0,0.4,0.2,0.8,0.5,1c1.3,1.2,2.8,0.6,4.2,0.3c1.1-0.2,1.1-1.3,1.2-2.1c0.1-0.8-0.2-1.7,0.1-2.5c0.3-0.9,0.8-2,1.5-2.5
		c1.6-1.1,3.2-0.2,3.2,1.8c0,1.4-0.1,2.9-0.2,4.4c1.6,0.1,3.2,0.2,4.8,0.3c0-1.5-0.1-2.9,0-4.3c0.1-0.7,0.5-1.6,1-1.9
		c0.7-0.5,2.2,0.2,2.7,1c0.9,1.5,1.2,3.1,0.9,4.8c-0.1,1.1,0.3,1.6,1.2,1.8c0.1,0,0.2,0,0.2,0c3.6,0.8,4.5,0.1,4.4-3.6
		c0-0.3,0-0.6-0.1-1c-0.2-1-0.2-1.9,0.9-2.5c0.8-0.4,2.9-0.3,3.4,0.3c0.3,0.3,0.5,0.9,0.5,1.4c0,6.6,0,13.3,0,19.9
		c0,0.8,0,1.7-0.2,2.5c-0.2,1.3-1,1.7-2.5,1.5c-1.1-0.2-1.7-0.9-1.6-2.1c0.1-1.8,0.2-3.6,0.3-5.4c0.1-1.5,0-1.6-1.5-1.8
		c-0.8-0.1-1.6-0.2-2.4-0.2c-1.5-0.1-2.1,0.4-2.1,1.9c-0.1,1.6,0,3.3,0,4.9c0,1.7-1.2,2.7-2.8,2.5c-1.2-0.1-1.8-0.7-1.8-2
		c0-1.6,0.1-3.2,0.3-4.8c0.1-0.8-0.3-1.3-1-1.6c-1.1-0.5-2.3-0.5-3.3,0.2c-1,0.7-1.2,1.8-0.9,2.9c0.5,1.9-0.2,3.4-1.4,4.7
		c-0.9,1-1.5,0.9-2-0.3c-0.9-2-0.9-4.1-0.6-6.2C219.7,115.6,219.8,115.3,219.9,114.9z M180.4,47.4c0.6-7.1,1.6-14.3,0.1-21.5
		c-1.4,0.2-2.7,0.3-4,0.4c-3.6,0.3-4.9,1.6-4.9,4.6c0,3.8,0,7.7,0,11.5c0,0.7,0.2,1.2,0.9,1.5C175.2,45.1,177.9,46.3,180.4,47.4z
		 M213.3,109c0,0,0.1,0,0.1,0c0,0.4,0,0.9,0,1.3c0,0.9,0.5,1.7,1.5,1.8c1,0.1,2.1,0.1,3.1-0.2c0.8-0.3,1.1-3.7,0.6-4.8
		c-0.5-1.1-1.7-0.7-2.5-0.8c-0.3,0-0.6,0-0.8,0c-0.9-0.1-1.4,0.3-1.6,1.1C213.4,107.9,213.4,108.5,213.3,109z M27.5,106
		c-0.7,0.1-1.4,0.1-2,0.3c-0.3,0.1-0.7,0.4-0.7,0.6c0,1.4,0,2.8,0.2,4.1c0.1,0.4,0.7,1,1.1,1c0.9,0.1,1.8,0,2.7-0.3
		c0.5-0.2,0.8-0.9,1-1.4c0.2-0.5,0.2-1.2,0.1-1.8C29.8,106.4,29.3,105.8,27.5,106z M228.7,108.6c-0.1-2.3-0.3-2.7-1.5-2.9
		c-2.3-0.3-2.8,0.4-3.7,2.7c-0.6,1.6,0.4,3.2,1.8,3.6c1.9,0.4,2.8-0.2,3.2-2.2C228.7,109.2,228.7,108.8,228.7,108.6z M14.6,108.2
		c0,0.3,0,0.9,0.1,1.4c0.3,1.8,1.2,2.4,3,2.1c1.3-0.2,1.8-0.9,2-2.2c0.3-1.4-0.4-2.5-1.2-3.5c-0.8-0.9-2-0.7-3-0.4
		C14.3,106,14.7,107.2,14.6,108.2z M205.1,112.3c0.4-0.1,0.8-0.1,1.2-0.2c1.9-0.3,2.2-0.6,2.5-2.4c0.2-1.1,0.2-2.2,0.1-3.3
		c0-1-0.7-1.4-1.6-1.2c-0.7,0.1-1.4,0.3-2.2,0.5C205.1,107.8,205.1,109.9,205.1,112.3z M8.1,111.4c1,0.1,1.9,0.1,2.3-1.3
		c0.6-2.4,0.2-3.2-2.3-3.6c-0.2,0-0.4,0-0.6,0C5.7,106.4,5,107,5,108.8c0,2.2,0.5,2.7,2.4,2.6C7.6,111.4,7.8,111.4,8.1,111.4z
		 M232.7,108.7c0,2.4,0.5,2.9,2.7,2.9c0.4,0,0.7,0,1.1,0.1c0.8,0.1,1.3-0.3,1.5-1c0.1-0.5,0.2-0.9,0.2-1.4c0.2-1.8-0.5-2.6-2.3-2.5
		c-0.6,0-1.1,0.2-1.7,0.2C233.1,107.1,232.7,107.7,232.7,108.7z M37.9,105.3c-0.7-0.2-1.5-0.4-2.2-0.5c-0.8-0.1-1.3,0.3-1.3,1
		c0,1.4,0.1,2.9,0.3,4.3c0.1,1,0.9,1.6,1.9,1.7c0.4,0,0.9,0.1,1.4,0.2C37.9,109.8,37.9,107.6,37.9,105.3z"/>
	<path d="M113,120.6c0.6,1.8,1.2,3.4,1.7,5.1c0.3,1.1-0.1,1.9-1.1,2.3c-1.7,0.8-3.7,0.2-4.7-1.4c-0.4-0.7-0.8-1.5-1.2-2.2
		c-0.3-0.7-0.4-1.5-0.9-2.1c-2.1-2.4-1.4-5.2-1-7.9c0.8-5.4,1.7-10.8,2.9-16.1c0.6-2.9,0.9-5.8,1.3-8.7c0.3-1.7-0.4-3.1-1.1-4.3
		c-0.8-1.4-1.3-2.9-0.7-4.3c1.4-3.4,0.4-6.6-0.6-9.8c-0.8-2.5-0.5-4.8-0.1-7.3c0.7-4.4,1.3-8.9,1.8-13.4c0.2-1.9,1.7-3.9,3.5-4.4
		c0.8-0.2,1.6-0.5,2.4-0.8c1.3-0.5,1.8-2.1,1.4-3.4c-0.5-1.4-1-2.8-1.1-4.2c-0.1-1.1,0.3-2.4,0.9-3.3c0.6-0.9,1.7-1.3,2.9-1.6
		c1.8-0.3,3.4-0.2,4.9,0.8c1.8,1.2,2,3.1,1.7,4.9c-0.3,1.7-1.1,3.4-1.8,5c-0.6,1.4-0.4,3.7,1.2,4.4c2.3,1.1,2.7,3.3,2.9,5.5
		c0.2,2.4,0.2,4.8,0.5,7.2c0.2,2.2,0.7,4.3,1,6.5c0.3,1.7,0.6,3.5,0.9,5.2c0.4,2.1,0.9,4.2,1.2,6.4c0.3,2-0.1,3.8-1.2,5.5
		c-0.3,0.4-0.5,1-0.5,1.4c0.6,3.7,0,7.4-0.6,11.1c-0.6,3.3-0.3,6.6-0.1,9.9c0.1,1.7,0,3.3,0,5c0,2.1,0,4.1,0,6
		c1.9,1.8,4,2.2,6.1,2.8c0.3,0.1,0.8,0.2,1,0.4c0.3,0.4,0.7,0.8,0.7,1.3c0,0.3-0.6,0.8-0.9,0.8c-2.2,0.1-4.5,0.2-6.7,0.2
		c-1.7,0-3.4-0.3-5.1-0.4c-1.7-0.1-2.2-0.6-2.8-2.2c-2.3-5.9-1.5-12.1-1.3-18.2c0.1-3.7,0.7-7.4-0.6-11.1c-0.2,0.7-0.3,1.3-0.5,2
		c-0.5,1.6-0.8,3.3-1.5,4.8c-1.4,2.9-1.3,6-1.6,9.1c-0.4,3.7-0.6,7.5-1.8,11.1c-0.1,0.2-0.1,0.4-0.1,0.6
		C114.6,120,114.2,120.7,113,120.6z"/>
	<path d="M138.9,47c-0.6-0.7,0.6-1.8-0.8-1.5c0.6-1.6,1.2-3.1,1.9-4.9c-1.1,0.9-2,1.5-2.8,2.2c-0.1-0.1-0.2-0.2-0.3-0.3
		c0.6-0.5,1.2-1,1.8-1.5c0.3-0.3,1.1-0.3,0.5-1c0.3-0.2,0.6-0.6,0.8-0.5c1.5,0.3,3.1,0.7,4.6,1.1c0.3,0.1,0.6,0.5,0.7,0.8
		c0.4,1,1,1.2,1.9,0.9c4.5-1.4,7.1,1.5,7.5,5.5c0.2,2-0.2,4-1.5,5.7c-0.6,0.7-0.3,1.9,0.7,2.4c1.1,0.6,2.3,1,3.6,1.3
		c1.9,0.5,3.4,1.4,4.6,3c1.1,1.5,2.2,2.9,3.3,4.4c1.3,1.8,1.4,4.3,0,6c-1.4,1.8-2.9,3.5-4.4,5.2c-0.1,0.1-0.2,0.3-0.3,0.4
		c-3.5,3.6-3.4,7.7-1.9,12.2c0.8,2.4,1.5,4.8,2,7.3c0.4,2.4,0.7,4.9,0.6,7.4c0,1.4-0.5,2.9-1,4.3c-1.3,3.5-2.6,7-3.1,10.7
		c-0.2,1.7-0.2,3.2,1.3,4.4c0.8,0.7,1.4,1.5,2.1,2.3c0.2,0.2,0.4,0.7,0.4,0.8c-0.2,0.2-0.6,0.4-0.9,0.4c-2.5,0-4.8-0.3-6.3-2.6
		c-0.2-0.3-0.5-0.6-0.7-0.9c0,0-0.1,0-0.2,0c-0.1,0.4-0.1,0.8-0.2,1.5c-0.3-0.4-0.6-0.5-0.7-0.8c-0.2-1-0.5-2-0.6-3
		c-0.1-0.7,0-1.4,0.1-2.1c0.2-1.1,0.6-2.2,0.9-3.4c0-0.1,0-0.2,0-0.3c-0.8-1.5-0.1-2.6,0.8-3.9c1.1-1.7,1.7-3.8,2.5-5.7
		c0.1-0.1,0-0.3-0.1-0.5c-0.8-1.9-1.5-3.9-2.4-5.7c-0.2-0.5-0.9-0.8-1.4-1.1c-0.4-0.2-0.9-0.4-1.4-0.5c-0.8-0.2-1.6-0.4-2.4-0.6
		c-0.4,2.2-1.1,4.1-1.1,6c0,2-0.5,4.1,0.6,5.9c0.1,0.1,0.1,0.3,0.1,0.5c0,1.7,0.1,3.4-0.1,5.1c-0.2,1.3,0.1,2.6,0.2,3.9
		c0.2,2.5,0.1,5.1,0,7.7c0,1.1-0.7,1.2-1.6,0.9c-1.6-0.6-2.8-2.1-2.9-3.9c-0.1-1.8-0.3-3.6-0.9-5.4c-0.3-0.9-0.1-1.9-0.2-2.9
		c-0.2-1.7-0.6-3.5-0.7-5.1c0.1-0.4,0.2-0.9,0.2-1.3c0.1-2,0.3-4,0.3-6.1c0-1.6-0.1-3.3-0.2-4.9c0-0.2-0.6-0.6-0.9-0.6
		c-1.6-0.2-2.3-1.4-3.1-2.5c-0.2-0.3-0.1-0.9-0.1-1.3c0.9-5.2,1.8-10.4,4.2-15.2c0.1-0.2,0.1-0.6,0-0.9c-0.8-2.6-2.6-4.5-4.7-6.2
		c-1.3-1.1-2.2-2.4-1.6-4.2c0.3-0.9,0.8-1.8,1.3-2.7c1.7-2.8,3.6-5.3,7.1-6c0.4-0.1,0.8-0.3,1.2-0.5c0.7-0.3,1-0.7,1.2-1.5
		c0.2-1,0-1.4-0.6-2.1c-1.4-1.5-1.5-3.5-1.8-5.3c-0.1-0.7-0.1-1.4,0-2c0.1-0.8-0.2-1.3-1.2-1.4c-0.4,0.8-0.8,1.7-1.2,2.6
		c-0.1,0-0.2-0.1-0.3-0.1c0.3-0.8,0.6-1.5,1-2.4c-0.9-0.3-1.6,0-2.1,0.8C139.8,45.7,139.4,46.3,138.9,47z M158,63.2
		c-0.5,4.3-0.9,8.3-1.4,12.2c0.1,0,0.3,0.1,0.4,0.1c0.4-0.5,0.9-0.9,1.2-1.4c1.3-2.1,2.5-4.3,3.8-6.5c0.2-0.3,0.1-1-0.1-1.2
		C160.8,65.4,159.6,64.5,158,63.2z M143.5,71.7c0.2-0.1,0.4-0.1,0.6-0.2c0-1.1,0.1-2.2,0-3.3c-0.1-0.9-0.3-1.8-0.5-2.7
		c-0.2-0.7-0.4-1.4-0.7-2.1c-0.8,0.4-1.6,0.7-2.3,1.1c-0.4,0.2-0.7,0.7-0.9,1.1c-0.1,0.2-0.1,0.6,0,0.8
		C140.9,68.2,142.2,69.9,143.5,71.7z"/>
	<path d="M93.3,64.9c1.4,0.4,2.8,0.7,4.1,1.1c1.9,0.5,2.4,1.1,2.4,3.2c0,2.1,0.1,4.2,0,6.2c-0.1,2.1-0.9,2.8-2.7,3.1
		c0.8,3.1,1.7,6.3,2.4,9.4c0.6,2.9,0.1,5.7-0.8,8.5c-0.1,0.4-0.7,0.7-1.1,1c-0.3,0.3-0.6,0.6-0.7,0.9c-0.3,2.7-0.8,5.3-0.8,8
		c-0.1,3.4-1,6.5-2.4,9.5c-0.7,1.5-0.6,2.4,0.6,3.6c0.2,0.2,0.5,0.4,0.7,0.7c0.8,1.2,0.5,2.1-1,2.3c-0.6,0.1-1.3,0.2-1.9,0.1
		c-1.3,0-2.3-0.9-2.4-2.2c-0.1-0.8,0.2-1.6,0.3-2.5c0.3-1.7,0.8-3.4,0.9-5.1c0.2-2.8,0.2-5.6,0.3-8.4c0-0.2,0-0.4,0-0.6
		c-0.2-2-0.3-4-0.5-6.2c-0.6,0-1.6-0.1-2.5-0.1c-0.7,2.1-1.4,4-2,6.1c-0.1,0.4-0.1,0.9,0.1,1.3c1.3,2.7,1.1,5.5,1.3,8.3
		c0.1,2.1,0.4,4.2,0.7,6.3c0.2,1.3-0.4,2.4-1.6,2.4c-2.3,0.2-4.5,0.3-6.8,0.4c-0.4,0-0.9,0-1.2-0.2c-0.4-0.3-0.8-0.7-1-1.2
		c-0.1-0.1,0.5-0.7,0.9-0.9c1.3-0.6,2.6-1.1,4-1.5c1.1-0.4,1.5-1,1.2-2.1c-0.6-2.4-1.2-4.9-2-7.2c-1-3.1-1.2-6.3-1.1-9.6
		c0-1,0.7-2.2-0.7-3.1c-0.4-0.2-0.2-1.4-0.1-2.2c0.7-4.6,1.6-9.2,3.5-13.5c0.1-0.3,0.3-0.7,0.4-1c0.6-1.7,0.2-2.2-1.5-2.2
		c-1.7,0-2.4-0.6-2.4-2.3c0-0.9,0.1-1.8,0.2-2.7c0.2-1.4,0.5-2.8,0.7-4.2c0.3-1.7,1-2.3,2.8-2.5c1.4-0.2,2.7-0.5,4.1-0.8
		c1.1-0.2,1-0.9,0.5-1.6c-1.3-1.7-1.4-3.6-0.8-5.5c0.1-0.3-0.1-0.6-0.2-0.9c-0.1-0.3-0.2-0.6-0.3-0.9c0-0.2,0.2-0.5,0.1-0.5
		c-1.9-2.2,1-3,1.5-4.5c0.4-1.1,4-1.2,5-0.4c1.1,0.8,0.9,2.1,1.3,3.1c0.3,0.8,0.4,1.6,0.8,2.3c0.8,1.5,0.9,2.8,0.1,4.3
		C94.9,61.9,94.1,63.3,93.3,64.9z"/>
	<path d="M48.7,79.3c3.1-1.7,6.2-3.3,9.2-5c0.4-0.2,0.7-0.5,1.1-0.8c-0.3-0.3-0.6-0.6-1-0.8c-2.3-1.2-3.2-3.2-2.3-6
		c0.5-1.7,1.1-3,2.7-3.6c2-0.7,3.8-1.2,6-0.1c1.6,0.8,2.3,2,2.9,3.4c0.8,1.8,0,5.2-2.5,6.2c-0.4,0.2-0.8,0.4-1.3,0.7
		c0.4,0.3,0.6,0.5,0.8,0.6c2.5,1.6,5,3.2,7.5,4.9c0.2,0.1,0.4,0.5,0.4,0.7c0.2,0.6,0.1,1.3,0.4,1.7c0.7,1,0.7,2,0.2,2.9
		c-1.2,2.3-2.2,4.6-3.7,6.7c-1.7,2.4-1.7,4.5,0,6.8c1.2,1.6,1.6,3.4,1.4,5.4c-0.2,1.9-0.1,3.8,0,5.6c0.1,1.9,0.4,3.8,0.5,5.7
		c0,0.5,0.1,1.1-0.1,1.5c-0.6,1.1-0.2,1.9,0.5,2.8c1.5,2.2,2.4,5.4,0.4,8.2c-0.6,0.8-1.2,1.4-2.2,1.5c-0.4,0-0.9,0.2-1.3,0.2
		c-3,0.3-4.3-0.5-5.3-3.2c-0.7-2-0.5-4.5,1.7-6.1c0.6-0.4,1.1-0.8,0.8-1.5c-1.5-2.8-0.8-5.9-1.2-8.8c-0.3-2.5-0.4-5-0.8-7.5
		c-0.1-1-0.8-1.8-1.2-2.8c-0.2,0-0.3,0.1-0.5,0.1c0,0.4-0.1,0.9-0.1,1.3c0.1,6,0.1,12.1,0.3,18.1c0.1,3-1.9,4.4-3.8,5.9
		c-0.4,0.3-1.4-0.1-2-0.4c-0.3-0.2-0.5-1-0.3-1.4c0.8-1.7,0.9-3.4,0.4-5.3c-0.2-0.6,0-1.3,0.2-2c0.5-2.7-0.5-5.4-0.6-8.1
		c-0.3-4.3-1-8.6-1.6-12.9c0-0.3-0.1-0.7-0.3-0.9c-1.8-2.2-3.6-4.4-5.5-6.5c-1.6-1.8-1.8-3.3-0.5-5.3c0.3-0.5,0.4-1.2,0.6-1.8
		C48.9,79.5,48.8,79.4,48.7,79.3z M54.8,88c0.2-0.1,0.3-0.1,0.5-0.2c-0.3-1.4-0.6-2.8-1-4.2c-0.3-1-1-0.9-1.7-0.5
		c-0.8,0.4-1.4,0.8-0.9,1.8C52.3,86.4,53.3,87.4,54.8,88z M66.9,88.3c0.7-1.3,1.4-2.3,1.9-3.3c0.7-1.5,0.2-2.2-1.5-2.4
		C66.5,84.3,66.2,86.1,66.9,88.3z"/>
	<path d="M172.9,63.1c0.6,0.5,0.9,0.8,1.2,1.1c0.4-0.7-0.6-1.7,0.6-2.4c0.1,0.4,0.3,0.7,0.3,0.9c0.2-0.4,0.4-0.9,0.6-1.3
		c0.2,0.4,0.5,0.7,0.7,1.1c0.1-0.2,0.3-0.5,0.4-0.8c0.6,0.6,0.6,0.6,0.4,4c0.3-0.2,0.6-0.4,0.9-0.6c0.3-0.1,0.5-0.2,0.8-0.3
		c0.1,0.1,0.2,0.2,0.2,0.3c-0.7,0.9-1.3,1.7-2,2.6c-0.2,0.3-0.6,0.7-0.5,1c0.2,3.1,0.4,6.1,0.7,9.2c0,0.2,0.1,0.4,0.2,0.5
		c0.2-0.5,0.4-1,0.6-1.4c-0.2-0.8-0.4-1.5-0.6-2.3c0.2-0.1,0.4-0.2,0.6-0.3c0.7,0.9,1.4,1.7,2.1,2.6c0-0.4,0-0.7-0.1-1.1
		c-0.3-0.9,0.2-1.2,1-1.2c0.7,0,1.3,0.2,1.3,1.1c0,0.5,0,0.9,0.2,1.4c0.1-0.8,0.3-1.6,0.4-2.4c0.1-0.8,0.6-1.1,1.4-0.9
		c0.8,0.2,0.7,0.8,0.6,1.4c-0.2,0.7-0.4,1.3-0.6,2c0.1,0,0.2,0.1,0.4,0.1c0.1-0.4,0.3-0.8,0.4-1.2c0.1-0.4,0.2-0.9,0.5-1.2
		c0.2-0.3,0.7-0.4,1.1-0.5c0.2,0.4,0.5,0.9,0.5,1.3c0.1,0.7,0,1.4,0,2.4c0.4-0.5,0.6-0.8,0.8-0.9c0.3-0.2,0.7-0.3,1.1-0.4
		c0.1,0.4,0.3,0.8,0.2,1.1c-0.2,0.6-0.7,1.1-1.2,1.9c0.9-0.4,1.7-0.7,2.7-1c0.5,0.2,0.7,0.8,0.3,1.5c-0.3,0.5-1,0.8-1.6,1.3
		c2.1,0.2,2.3,0.4,2.2,2.2c-0.2,2-0.2,2-1.3,2.4c0.3,0.4,0.6,0.7,1,1.3c-0.7,0.1-1.3,0.1-1.7,0.2c0.1,0.4,0.1,0.9,0.2,1.4
		c-0.1,0.1-0.3,0.1-0.4,0.2c-0.8-0.6-1.5-1.1-2.4-1.8c-0.2,0.3-0.3,0.6-0.5,1c3.9,1.5,5.5,5,4.6,9.5c-0.1,0.3-0.2,0.6-0.1,0.8
		c0.8,3.3-0.2,6.3-1.2,9.3c-0.4,1.3-0.5,2.5-0.1,3.9c0.7,2.7,1.5,5.4,1,8.2c-0.5,3-2.4,3.9-5,2.5c-1.3-0.7-2.4-1.5-3.6-2.4
		c-1.2-0.9-1.6-0.9-2.2,0.4c-1,2.4-3.3,3-5.5,1.8c-0.5-0.2-1-1-0.9-1.5c0.1-2.4,0.4-4.8,0.7-7.2c0.3-2.2,0.9-4.3,1.3-6.4
		c0.1-0.3-0.3-0.8-0.6-1c-1.9-1.3-2.5-2.9-1.8-5.2c0.6-1.8,1.2-3.6,1.8-5.4c0.6-2.2,0.7-4.3-0.1-6.5c-0.5-1.2-0.3-2.7-0.3-4.1
		c0-1.2,0-2.4-0.5-3.6c-0.3-0.6,0.1-1.4,0.2-2.2c0.1-0.4,0.3-0.7,0.3-1.1c-0.1-3.3-0.3-6.6-0.5-9.9c-0.1-1.3-0.3-2.5-0.5-3.8
		C173.1,64.4,173,63.9,172.9,63.1z"/>
	<path d="M211,6.2c-2.3-0.4-4.8-0.8-7.3-1.3c-1.5-0.3-2.2,0-2.8,1.4c-0.4,1.1-0.8,2.2-1.1,3.3c-0.7,2.1-1.5,2.8-3.8,2.6
		c-1.8-0.2-3.6-0.7-5.4-1c-0.9-0.2-1.7-0.5-2.5-0.7c-1.7-0.3-2.8,0.3-3.4,1.9c-0.4,1-0.6,2-0.9,3c-0.7,2.2-2,2.9-4.3,2.7
		c-0.9-0.1-1.8,0-2.8-0.1c-0.6-0.1-1.3-0.1-1.9-0.4c-0.3-0.1-0.5-0.6-0.8-0.9c0.3-0.3,0.7-0.7,1-0.8c1.3-0.2,2.5-0.2,3.8-0.2
		c1.7-0.1,2.8-0.9,3.3-2.5c0.3-0.9,0.5-1.8,0.8-2.6c0.8-2.3,2.5-3.6,4.9-3.6c1.5,0,3.1,0.2,4.7,0.3c0.8,0,1.5,0,2.3,0
		c1.1-0.1,1.8-0.7,2.1-1.8c0.1-0.5,0.2-0.9,0.4-1.4c0.8-2.7,2.4-4.1,5.3-4.1c1.4,0,2.9,0.2,4.3,0.4c2.4,0.3,4.7,0.7,7.1,1
		c1.1,0.1,1.9,0.6,2.1,1.8c0.2,1-0.4,2.1-1.6,2.4C213.5,5.9,212.4,6,211,6.2z"/>
	<path class="st0" d="M180.4,47.4c-2.5-1.1-5.2-2.3-8-3.5c-0.7-0.3-0.9-0.8-0.9-1.5c0-3.8,0-7.7,0-11.5c0-3,1.4-4.2,4.9-4.6
		c1.3-0.1,2.5-0.3,4-0.4C182,33.1,181,40.3,180.4,47.4z"/>
	<path class="st0" d="M213.3,109c0.1-0.5,0.1-1.1,0.3-1.6c0.2-0.8,0.7-1.2,1.6-1.1c0.3,0,0.6,0,0.8,0c0.9,0.1,2-0.3,2.5,0.8
		c0.5,1.1,0.2,4.5-0.6,4.8c-0.9,0.3-2,0.3-3.1,0.2c-0.9-0.1-1.4-0.8-1.5-1.8c0-0.4,0-0.9,0-1.3C213.3,109,213.3,109,213.3,109z"/>
	<path class="st0" d="M27.5,106c1.8-0.1,2.4,0.4,2.5,2.5c0,0.6,0,1.2-0.1,1.8c-0.2,0.5-0.5,1.3-1,1.4c-0.8,0.3-1.8,0.4-2.7,0.3
		c-0.4,0-1.1-0.6-1.1-1c-0.2-1.4-0.2-2.7-0.2-4.1c0-0.2,0.4-0.6,0.7-0.6C26.1,106.1,26.8,106.1,27.5,106z"/>
	<path class="st0" d="M228.7,108.6c0,0.2,0,0.7-0.1,1.1c-0.4,2.1-1.3,2.7-3.2,2.2c-1.5-0.3-2.4-1.9-1.8-3.6c0.8-2.3,1.4-3,3.7-2.7
		C228.4,105.9,228.7,106.3,228.7,108.6z"/>
	<path class="st0" d="M14.6,108.2c0.1-1.1-0.3-2.2,0.9-2.7c1-0.3,2.2-0.5,3,0.4c0.9,0.9,1.5,2,1.2,3.5c-0.3,1.4-0.8,2-2,2.2
		c-1.9,0.3-2.7-0.2-3-2.1C14.6,109.1,14.6,108.6,14.6,108.2z"/>
	<path class="st0" d="M205.1,112.3c0-2.3,0-4.5,0-6.7c0.8-0.2,1.5-0.4,2.2-0.5c1-0.2,1.6,0.2,1.6,1.2c0,1.1,0,2.2-0.1,3.3
		c-0.3,1.9-0.6,2.1-2.5,2.4C205.9,112.2,205.5,112.2,205.1,112.3z"/>
	<path class="st0" d="M8.1,111.4c-0.2,0-0.4,0-0.6,0C5.5,111.5,5,111,5,108.8c0-1.7,0.6-2.3,2.5-2.3c0.2,0,0.4,0,0.6,0
		c2.5,0.4,2.9,1.1,2.3,3.6C10,111.4,9.1,111.5,8.1,111.4z"/>
	<path class="st0" d="M232.7,108.7c-0.1-1,0.4-1.7,1.5-1.8c0.6,0,1.1-0.2,1.7-0.2c1.7-0.1,2.5,0.8,2.3,2.5c-0.1,0.5-0.1,0.9-0.2,1.4
		c-0.2,0.8-0.7,1.2-1.5,1c-0.4-0.1-0.7-0.1-1.1-0.1C233.2,111.6,232.7,111.1,232.7,108.7z"/>
	<path class="st0" d="M37.9,105.3c0,2.3,0,4.5,0,6.7c-0.5-0.1-0.9-0.1-1.4-0.2c-1.1-0.1-1.8-0.6-1.9-1.7c-0.2-1.4-0.3-2.9-0.3-4.3
		c0-0.8,0.6-1.1,1.3-1C36.4,104.9,37.1,105.1,37.9,105.3z"/>
	<path class="st0" d="M158,63.2c1.5,1.3,2.8,2.2,3.9,3.3c0.2,0.2,0.3,0.9,0.1,1.2c-1.2,2.2-2.5,4.4-3.8,6.5
		c-0.3,0.5-0.8,0.9-1.2,1.4c-0.1,0-0.3-0.1-0.4-0.1C157.1,71.5,157.5,67.5,158,63.2z"/>
	<path class="st0" d="M143.5,71.7c-1.3-1.8-2.6-3.5-3.8-5.3c-0.1-0.2-0.1-0.6,0-0.8c0.2-0.4,0.5-0.9,0.9-1.1
		c0.7-0.4,1.5-0.8,2.3-1.1c0.2,0.7,0.5,1.4,0.7,2.1c0.2,0.9,0.5,1.8,0.5,2.7c0.1,1.1,0,2.2,0,3.3C143.9,71.5,143.7,71.6,143.5,71.7z
		"/>
	<path class="st0" d="M54.8,88c-1.4-0.6-2.4-1.7-3.1-3.1c-0.5-1,0.2-1.4,0.9-1.8c0.7-0.4,1.4-0.5,1.7,0.5c0.4,1.4,0.6,2.8,1,4.2
		C55.1,87.9,54.9,88,54.8,88z"/>
	<path class="st0" d="M66.9,88.3c-0.7-2.2-0.4-4,0.4-5.7c1.7,0.2,2.3,0.9,1.5,2.4C68.3,86.1,67.6,87.1,66.9,88.3z"/>
</g>
<g>
	<path d="M305.6,80.5c0,2.8,0,5.7,0,8.5c0,0.6,0.4,1.2,0.6,1.8c0.5,1.5-0.1,2.4-1.6,2.1c-1.5-0.3-3-0.7-4.4-1.2
		c-0.8-0.3-1.1-0.8-0.8-1.7c0.2-0.7,0.4-1.5,0.4-2.2c0-6.8,0-13.6,0-20.5c0-1.3,0.8-2.2,2.1-2.1c1,0,2,0.2,2.9,0.3
		c1.6,0.3,2.7,1.3,3.2,2.8c1.1,3.4,2.2,6.8,3.3,10.2c0.2,0.5,0.4,1,0.8,1.5c0-0.7,0-1.5,0-2.2c-0.1-3.7-0.2-7.4-0.2-11
		c0-0.4,0.5-1.1,1-1.3c1.7-0.7,3.3-0.2,4.8,0.5c0.3,0.1,0.5,0.8,0.5,1.2c0,1-0.3,1.9-0.3,2.9c0,5.8,0,11.6,0,17.4
		c0,1.4,0.1,2.7,0.2,4.1c0.1,1.6-0.3,2.3-1.9,2.1c-1.7-0.2-3.4-0.6-5.1-1c-0.8-0.2-1.1-0.7-1.3-1.5c-0.4-1.7-1.1-3.3-1.7-5
		c-0.7-1.9-1.6-3.8-2.3-5.8C305.8,80.4,305.7,80.4,305.6,80.5z"/>
	<path d="M284.2,80.6c0,2.9,0,5.7,0,8.6c0,0.6,0.5,1.3,0.6,1.9c0.2,1.4-0.3,2-1.7,1.8c-1.5-0.3-3-0.8-4.4-1.2
		c-0.9-0.3-1-0.9-0.8-1.8c0.2-0.9,0.4-1.7,0.4-2.6c0-6.7,0-13.5-0.1-20.2c0-1.2,0.8-2,2-2c0.9,0,1.8,0.1,2.7,0.3
		c1.8,0.3,3,1.2,3.6,3c1.1,3.4,2.2,6.7,3.3,10.1c0.2,0.5,0.4,1.1,0.9,1.6c0-2.5,0-4.9,0-7.4c0-2-0.1-3.9-0.2-5.9
		c0-0.9,0.4-1.2,1.1-1.5c1.7-0.5,3.2-0.1,4.7,0.6c0.3,0.2,0.5,0.9,0.5,1.4c0,0.7-0.2,1.4-0.2,2.1c0,6.5,0,12.9,0,19.4
		c0,0.9,0.1,1.8,0.2,2.7c0.2,1.5-0.3,2.2-1.8,2.1c-1.2,0-2.4-0.1-3.5-0.4c-1.6-0.4-2.8-1-3.2-3.1c-0.7-3.3-2.4-6.4-3.7-9.6
		C284.5,80.5,284.4,80.5,284.2,80.6z"/>
	<path d="M246.1,81.4c2.4,2.1,4.8,4.3,7.2,6.5c0.3,0.3,0.6,1,0.5,1.2c-0.7,1.3-1.5,2.6-2.5,3.7c-0.8,0.9-1.8,0.6-2.6-0.2
		c-1.5-1.7-3.1-3.4-4.7-5c-0.9-0.9-1.8-1.7-2.7-2.5c-0.1,0-0.3,0.1-0.4,0.1c0.2,2.3,0.3,4.5,0.6,6.8c0.2,1.1,0,1.7-1.1,1.7
		c-0.6,0-1.1,0-1.7,0c-3.4-0.4-3.4-0.5-3.4-3.8c0-7.5-0.1-14.9,0-22.4c0-0.4,0.5-1,1-1.2c0.4-0.2,1-0.1,1.4,0c2,0.8,3.7,0.3,5.5-0.6
		c2.6-1.3,4-1,6.2,1c0.6,0.5,1.1,1,1.7,1.6c2,1.9,2.5,3.6,1,6.1c-1.1,1.9-2.7,3.6-4.1,5.4C247.3,80.2,246.8,80.7,246.1,81.4z
		 M241,77.6c0.1,0.1,0.3,0.1,0.4,0.2c2.3-1.9,4.3-4,5.5-6.9c0.1-0.3,0.1-0.8-0.1-1c-0.1-0.1-0.7-0.1-0.9,0c-1.5,0.9-3,1.9-4.5,2.9
		c-0.2,0.1-0.3,0.4-0.3,0.7C241,74.8,241,76.2,241,77.6z"/>
	<path d="M395.8,82.4c-1.5,0.3-2.8,0.6-4.1,1c-0.3,0.1-0.7,0.7-0.7,1c0.1,2.3,0.2,4.6,0.3,6.9c0.1,1.2-0.4,1.8-1.5,1.5
		c-1.4-0.3-2.7-0.8-4-1.3c-0.4-0.2-0.8-0.8-0.8-1.3c0-7.2,0-14.4,0.1-21.6c0-0.4,0-0.9,0-1.3c0.2-1.8,0.9-2.4,2.7-2.2
		c0.8,0.1,1.6,0.3,2.4,0.6c1.2,0.5,1.3,1,1,2.3c-0.3,1.2-0.3,2.5-0.3,3.8c0,1.7,0,3.5,0,5.4c1.6-0.4,3.1-0.7,4.6-1.1
		c0-3.3,0.1-6.5,0-9.7c0-0.8,0.1-1.3,0.8-1.5c1.7-0.5,3.3-0.3,4.8,0.6c0.4,0.2,0.6,0.9,0.6,1.3c0,3.3-0.2,6.6-0.2,9.9
		c0,0.4,0.6,0.8,0.9,1.3c0.5,0.6,1.4,1.5,1.2,1.9c-0.3,0.8-1.2,1.4-1.9,2c-0.1-0.1-0.3-0.1-0.4-0.2c0.1,3.2,0.2,6.3,0.4,9.5
		c0.2,2.4-0.4,3.1-2.8,2.3c-1-0.3-2-0.8-2.9-1.4c-1-0.6-1.3-1.4-0.7-2.5c0.1-0.2,0.2-0.5,0.2-0.7C395.8,86.8,395.8,84.7,395.8,82.4z
		"/>
	<path d="M425.1,79.7c0.1,3.7-0.6,7.1-2.5,10.3c-1,1.7-2.4,2.9-4.4,3.3c-0.5,0.1-1,0.1-1.4,0c-1.8-0.5-3.7-0.9-5.4-1.6
		c-3-1.2-4.1-4-4.8-6.9c-1.2-5.6-0.2-11,1.8-16.3c0.3-0.8,0.8-1.6,1.4-2.3c0.4-0.4,1.1-0.7,1.8-0.8c1.2-0.2,2.3-0.3,3.5-0.4
		c2.5-0.3,4.6,0.5,6.2,2.4c2.6,2.9,3.5,6.5,3.8,10.3C425.1,78.2,425.1,79,425.1,79.7z M413.3,72.7c-0.2,0.6-0.5,1-0.5,1.5
		c-0.2,2.8-0.4,5.6-0.4,8.4c0,1.5,0.5,2.9,1,4.3c0.3,1,0.9,2.1,2.2,2c1.3,0,1.6-1.1,2-2c0.1-0.3,0.2-0.6,0.3-0.8
		c1.3-4.3,1.4-8.8,0.9-13.2c-0.1-1-0.5-2.1-0.8-3.1c-0.1-0.4-0.6-0.8-1-0.8c-0.2,0-0.6,0.5-0.8,0.8c-0.3,0.6-0.5,1.3-0.8,1.9
		C415.1,72.7,414.5,73.4,413.3,72.7z"/>
	<path d="M268.3,85.6c-2.3,0.8-4.3,1.4-6.4,2.1c-0.3,0.1-0.5,0.5-0.6,0.9c-0.4,1.2-0.8,2.3-1.2,3.5c-0.3,0.8-0.8,1.1-1.6,0.9
		c-0.1,0-0.2-0.1-0.2-0.1c-4.1-1-4.3-1.5-2.8-5.3c0.4-1,0.9-2,0.2-3.1c-0.1-0.2,0.4-1.2,0.8-1.4c1-0.5,1.4-1.3,1.6-2.3
		c1.1-4.1,2.4-8.1,3.5-12.2c0.2-0.8,0.3-1.6,0.3-2.4c0-1,0.4-1.4,1.3-1.2c2.2,0.5,4.5,1.1,6.7,1.6c0.8,0.2,1,0.7,1.1,1.5
		c0.7,6.5,1.7,12.9,3.5,19.2c0.3,0.9,0.7,1.8,1,2.8c0.2,0.8,0.3,1.7,0.2,2.5c0,0.3-0.7,0.8-1,0.8c-1.6-0.4-3.1-0.8-4.6-1.6
		c-0.5-0.3-0.7-1.3-0.9-2C268.8,88.5,268.7,87.2,268.3,85.6z M267,80.7c-0.3-2.2-0.7-4.3-1-6.4c-0.1,0-0.2,0-0.2,0
		c-0.7,2.4-1.5,4.7-2.3,7.3C264.8,81.2,265.8,81,267,80.7z"/>
	<path d="M231.3,82.5c-0.5,1.6-0.8,3.2-1.4,4.6c-0.7,1.7-1.5,3.4-2.6,4.9c-1,1.4-2.5,1.8-4.1,1.1c-1-0.4-2.1-0.8-3.2-1
		c-2.1-0.5-3.2-2-4-3.9c-1.5-3.9-1.5-7.9-1.1-11.9c0.2-2.4,1-4.7,1.6-7c0.2-0.8,0.7-1.5,1.1-2.2c1.4-2.1,2.9-2.7,5.4-2
		c1.1,0.3,2.2,0.8,3.2,1.3c2,0.9,3.2,2.5,3.5,4.7c0.1,1,0.3,1.9,0.5,2.9c0.3,1.9-0.5,2.7-2.3,2.3c-1-0.3-2.1-0.6-3.1-0.9
		c-1.2-0.4-1.5-1.2-1.2-2.4c0.2-0.9,0-1.8,0-2.7c-0.2-0.1-0.4-0.1-0.6-0.2c-0.4,0.7-1,1.3-1.1,2.1c-0.5,2.7-1.1,5.5-1.3,8.2
		c-0.1,2.2,0.2,4.3,0.5,6.5c0.1,0.7,0.7,1.4,1.1,2.3c1.4-1.3,1.8-2.7,2.2-4.1c0.5-1.8,0.5-1.8-1.3-2.7c-0.7-0.3-1.8-0.4-1.7-1.6
		c0.1-1.2,1.2-2.2,2.5-2.4c1.4-0.2,2.9-0.5,4.2-0.9c1.2-0.3,2.1,0,3,0.7c0.6,0.4,1.1,0.9,1.7,1.4c0.7,0.6,1.2,1.3,0.5,2.1
		c-0.4,0.5-1.2,0.6-1.8,0.9C231.6,82.6,231.4,82.6,231.3,82.5z"/>
	<path d="M444.1,72.4c0,5.2,0,10.5-1.3,15.6c-0.3,1.3-0.9,2.6-1.5,3.8c-0.9,1.6-2.2,2.1-4,1.6c-2-0.5-3.9-1.1-5.9-1.8
		c-1.3-0.4-2.1-1.3-2.3-2.5c-0.7-2.9-1.5-5.7-1.7-8.7c-0.2-4.6,0-9.2,0.1-13.8c0-1.5,0.7-1.9,2.1-1.6c1.2,0.3,2.3,0.6,3.4,1
		c0.4,0.2,0.9,1,0.8,1.3c-1.3,3.9-0.6,7.8-0.5,11.7c0.1,2.8,0.5,5.5,1,8.3c0.1,0.7,0.8,1.4,1.2,2.1c0.5-0.7,1.4-1.3,1.5-2
		c0.6-3.2,1.1-6.5,1.3-9.8c0.2-3.1-0.1-6.2-0.1-9.2c0-0.5-0.2-1-0.3-1.5c-0.4-1.3,0.4-2.3,1.7-2.1c1.3,0.2,2.6,0.5,3.8,1
		c0.4,0.1,0.8,0.8,0.8,1.2C444.1,68.9,444.1,70.6,444.1,72.4z"/>
	<path d="M454.6,69.2c-0.5,0.5-1.1,1-1.4,1.6c-1.6,3-0.7,6.3,2.1,8.1c1.3,0.8,2.6,1.6,3.8,2.5c2.6,1.9,3.5,6.1,2.1,8.9
		c-1.2,2.4-4.2,3.7-7,3c-0.7-0.2-1.5-0.5-2.2-0.6c-2.3-0.2-3.5-1.6-4.1-3.6c-0.3-1-0.8-2-1.4-3c-0.6-1.2-0.1-2.3,1.1-2.3
		c1.5,0,3,0.3,4.4,0.6c0.3,0.1,0.7,0.7,0.8,1.1c0.3,0.9,0.4,1.9,0.6,2.9c0.1,0.3,0.5,0.7,0.7,0.7c0.3,0,0.7-0.3,0.9-0.6
		c1.5-2.2,0.6-5.4-1.6-6.8c-1.6-0.9-3.1-2-4.5-3.1c-2.3-1.9-2.9-4.4-2.3-7.2c0.4-2.2,1.5-4.1,3.1-5.7c1.1-1.1,2.3-1.5,3.7-0.9
		c1.5,0.6,3,1.2,4.5,1.7c1.9,0.7,2.8,2.1,2.9,4c0.1,1.9,0.2,3.7,0.3,5.6c0.1,1.4-0.7,2-2.1,1.8c-0.2,0-0.3,0-0.5-0.1
		c-3.5-0.8-3.7-1.1-3.6-4.6c0-1.2,0-2.5,0-3.7C454.8,69.4,454.7,69.3,454.6,69.2z"/>
	<path d="M360.6,69.2c-0.5,0.5-1.1,1-1.4,1.6c-1.6,3.1-0.7,6.2,2.2,8.1c1.2,0.8,2.4,1.5,3.6,2.3c2.7,1.9,3.7,6,2.3,9
		c-1.1,2.4-4.2,3.8-7.1,3c-0.9-0.2-1.8-0.5-2.7-0.7c-1.6-0.3-2.7-1.2-3.3-2.7c-0.6-1.4-1.2-2.7-1.8-4.1c-0.5-1,0.1-2.1,1.3-2
		c1.4,0.1,2.9,0.3,4.3,0.6c0.4,0.1,0.8,0.7,0.9,1.2c0.3,0.9,0.3,1.9,0.6,2.8c0.1,0.3,0.5,0.7,0.8,0.8c0.2,0.1,0.7-0.3,0.9-0.6
		c1-1.7,1.1-5.5-1.6-6.8c-1.6-0.8-3.2-1.9-4.6-3.1c-2.4-2-3-4.7-2.3-7.7c0.5-2.1,1.6-3.9,3.2-5.4c0.9-0.9,2-1.2,3.3-0.7
		c1.6,0.6,3.2,1.2,4.8,1.8c1.8,0.7,2.7,2,2.8,3.9c0.1,1.9,0.2,3.8,0.3,5.7c0.1,1.3-0.7,2-2,1.8c-0.3,0-0.5-0.1-0.8-0.1
		c-3.4-0.8-3.6-1.1-3.5-4.5c0-1.3,0-2.6,0-3.8C360.9,69.4,360.7,69.3,360.6,69.2z"/>
	<path d="M470,87.2c1.5-0.7,2.7-1.3,4-1.8c0.5-0.2,1.2-0.1,1.6,0.1c1,0.6,1.9,1.3,2.7,2.1c0.3,0.3,0.5,1.1,0.3,1.5
		c-0.2,0.6-0.6,1.4-1.6,1.3c-0.5-0.1-1,0-1.5,0.2c-1.6,0.9-3.2,1.8-4.8,2.7c-0.5,0.3-1.2,0.4-1.7,0.3c-1.6-0.6-3.6-1-4.5-2.2
		c-0.8-1.1-0.3-3.1-0.3-4.7c0-6.5,0-13,0-19.6c0-1.6,1.2-2.5,2.6-1.9c2.3,1.1,4.3,0.8,6.3-0.5c0.4-0.3,1.4-0.2,1.8,0.1
		c1,0.7,1.9,1.5,2.7,2.4c0.3,0.4,0.6,1.3,0.5,1.5c-0.5,0.6-1.2,1.2-1.9,1.3c-2.2,0.1-4,1-5.8,2.1c-0.3,0.2-0.4,0.6-0.4,1
		c0,1.5,0,2.9,0,4.5c0.5-0.2,0.8-0.3,1.1-0.4c0.8-0.2,1.9-0.7,2.4-0.4c1.2,0.8,2.3,1.9,3.3,3c0.5,0.6-0.4,1.6-1.4,2
		c-1.6,0.5-3.2,1.2-4.7,1.8c-0.3,0.1-0.6,0.6-0.6,0.9C469.9,85.4,470,86.2,470,87.2z"/>
	<path d="M330,76.9c1.5-3,2.8-5.8,4.2-8.7c0.4-0.7,0.7-1.4,1.1-2.2c0.5-1,1.3-1.5,2.3-1.1c1.2,0.5,2.4,1.3,3.5,2.1
		c0.8,0.5,0.8,2,0,2.5c-1.5,1-2.2,2.6-2.9,4.2c-1.9,4.3-3.8,8.7-5.6,13.1c-0.4,1.1-0.3,2.5-0.4,3.7c-0.1,0.8-0.1,1.6-0.4,2.2
		c-0.2,0.4-0.9,0.8-1.3,0.7c-1.4-0.3-2.8-0.7-4.1-1.3c-1.3-0.6-1.5-1.4-1.1-2.7c0.6-1.8,1.8-3.6,1.7-5.3c-0.1-1.7-1.5-3.3-2.2-5
		c-1.3-3.1-2.6-6.2-3.8-9.4c-0.9-2.2-0.8-2.2,1.1-3.6c0.6-0.4,1.1-0.8,1.7-1.1c1.6-0.8,2.6-0.2,2.8,1.6
		C327.1,70.2,328.4,73.6,330,76.9z"/>
	<path d="M350.3,69.9c-0.1,2.5-1.4,4.2-3.8,4.7c-0.5,0.1-1-0.3-1.5-0.6c0,0,0.2-0.7,0.4-1c1.2-1.6,1-3.6-0.7-4.8
		c-1.1-0.8-1.1-1.8,0-2.6c2.4-1.6,4-1.1,5,1.6C349.9,68.2,350.1,69.1,350.3,69.9z"/>
	<path class="st0" d="M241,77.6c0-1.4,0-2.8,0-4.2c0-0.2,0.1-0.6,0.3-0.7c1.5-1,3-1.9,4.5-2.9c0.2-0.1,0.8-0.2,0.9,0
		c0.2,0.3,0.2,0.7,0.1,1c-1.1,2.9-3.2,5-5.5,6.9C241.3,77.7,241.1,77.7,241,77.6z"/>
	<path class="st0" d="M413.3,72.7c1.2,0.7,1.8,0,2.1-1c0.3-0.6,0.4-1.3,0.8-1.9c0.2-0.3,0.6-0.9,0.8-0.8c0.4,0.1,0.9,0.5,1,0.8
		c0.4,1,0.7,2,0.8,3.1c0.5,4.5,0.4,8.9-0.9,13.2c-0.1,0.3-0.2,0.6-0.3,0.8c-0.5,0.9-0.8,2-2,2c-1.3,0-1.9-1-2.2-2
		c-0.5-1.4-1-2.9-1-4.3c-0.1-2.8,0.2-5.6,0.4-8.4C412.8,73.7,413.1,73.2,413.3,72.7z"/>
	<path class="st0" d="M267,80.7c-1.1,0.3-2.1,0.5-3.5,0.9c0.8-2.6,1.5-5,2.3-7.3c0.1,0,0.2,0,0.2,0C266.3,76.4,266.6,78.5,267,80.7z
		"/>
</g>
<g>
	<path d="M260.6,100.4c-2.5,0-4.5,0.8-5.9,2.5c-1.5,1.7-2.2,4-2.2,6.9c0,3,0.7,5.3,2.1,6.9c1.4,1.6,3.4,2.4,6,2.4
		c1.6,0,3.4-0.3,5.5-0.9v2.3c-1.6,0.6-3.5,0.9-5.9,0.9c-3.4,0-6-1-7.8-3.1c-1.8-2-2.7-4.9-2.7-8.7c0-2.4,0.4-4.4,1.3-6.2
		c0.9-1.8,2.2-3.1,3.8-4.1c1.7-1,3.6-1.4,5.9-1.4c2.4,0,4.5,0.4,6.3,1.3l-1.1,2.3C264,100.8,262.3,100.4,260.6,100.4z"/>
	<path d="M290.8,109.7c0,3.7-0.9,6.5-2.8,8.6c-1.8,2.1-4.4,3.1-7.7,3.1c-3.4,0-6-1-7.8-3.1c-1.8-2.1-2.7-5-2.7-8.7
		c0-3.7,0.9-6.6,2.8-8.6c1.8-2,4.4-3.1,7.8-3.1c3.3,0,5.8,1,7.7,3.1C289.9,103.2,290.8,106,290.8,109.7z M272.6,109.7
		c0,3.1,0.7,5.4,2,7c1.3,1.6,3.2,2.4,5.7,2.4c2.5,0,4.4-0.8,5.7-2.4c1.3-1.6,1.9-3.9,1.9-7c0-3.1-0.6-5.4-1.9-7
		c-1.3-1.6-3.2-2.4-5.7-2.4c-2.5,0-4.5,0.8-5.8,2.4C273.3,104.3,272.6,106.6,272.6,109.7z"/>
	<path d="M295.9,121.2V98.3h2.7v20.4h10.1v2.4H295.9z"/>
	<path d="M329.8,98.3v14.8c0,2.6-0.8,4.7-2.4,6.1c-1.6,1.5-3.7,2.2-6.5,2.2s-4.9-0.8-6.4-2.2c-1.5-1.5-2.3-3.6-2.3-6.2V98.3h2.7
		v14.9c0,1.9,0.5,3.4,1.6,4.4c1,1,2.6,1.5,4.6,1.5c1.9,0,3.4-0.5,4.5-1.5c1-1,1.6-2.5,1.6-4.4V98.3H329.8z"/>
	<path d="M345.9,121.2l-7.8-20.2H338c0.1,1.6,0.2,3.5,0.2,5.7v14.5h-2.5V98.3h4l7.2,18.8h0.1l7.3-18.8h4v22.8h-2.7v-14.7
		c0-1.7,0.1-3.5,0.2-5.5h-0.1l-7.8,20.2H345.9z"/>
	<path d="M364.7,98.3h6.5c3,0,5.2,0.5,6.6,1.4c1.4,0.9,2,2.3,2,4.3c0,1.4-0.4,2.5-1.1,3.4c-0.8,0.9-1.9,1.5-3.3,1.7v0.2
		c3.5,0.6,5.2,2.4,5.2,5.5c0,2-0.7,3.6-2.1,4.8c-1.4,1.1-3.3,1.7-5.8,1.7h-8V98.3z M367.4,108.1h4.4c1.9,0,3.2-0.3,4-0.9
		c0.8-0.6,1.2-1.6,1.2-3c0-1.3-0.5-2.2-1.4-2.8c-0.9-0.6-2.4-0.9-4.4-0.9h-3.9V108.1z M367.4,110.3v8.5h4.8c1.8,0,3.2-0.4,4.2-1.1
		c0.9-0.7,1.4-1.8,1.4-3.4c0-1.4-0.5-2.5-1.4-3.1c-1-0.7-2.4-1-4.4-1H367.4z"/>
	<path d="M385.4,121.2V98.3h2.7v22.8H385.4z"/>
	<path d="M408.7,121.2l-2.8-7.3h-9.2l-2.8,7.3h-2.7l9-22.9h2.2l9,22.9H408.7z M405,111.5l-2.7-7.1c-0.3-0.9-0.7-2-1.1-3.3
		c-0.2,1-0.6,2.1-1,3.3l-2.7,7.1H405z"/>
	<path d="M416.9,117.4l0.2,0.4c-0.3,1-0.7,2.3-1.2,3.6c-0.5,1.4-1,2.7-1.6,3.9h-2c0.3-1.1,0.6-2.4,0.9-4c0.3-1.6,0.6-2.9,0.7-3.8
		H416.9z"/>
	<path d="M440.9,121.2l-7.8-20.2H433c0.1,1.6,0.2,3.5,0.2,5.7v14.5h-2.5V98.3h4l7.2,18.8h0.1l7.3-18.8h4v22.8h-2.7v-14.7
		c0-1.7,0.1-3.5,0.2-5.5h-0.1l-7.8,20.2H440.9z"/>
	<path d="M479.5,109.7c0,3.7-0.9,6.5-2.8,8.6c-1.8,2.1-4.4,3.1-7.7,3.1c-3.4,0-6-1-7.8-3.1c-1.8-2.1-2.7-5-2.7-8.7
		c0-3.7,0.9-6.6,2.8-8.6c1.8-2,4.4-3.1,7.8-3.1c3.3,0,5.8,1,7.7,3.1C478.6,103.2,479.5,106,479.5,109.7z M461.3,109.7
		c0,3.1,0.7,5.4,2,7c1.3,1.6,3.2,2.4,5.7,2.4c2.5,0,4.4-0.8,5.7-2.4c1.3-1.6,1.9-3.9,1.9-7c0-3.1-0.6-5.4-1.9-7
		c-1.3-1.6-3.2-2.4-5.7-2.4c-2.5,0-4.5,0.8-5.8,2.4C461.9,104.3,461.3,106.6,461.3,109.7z"/>
</g>
</svg>
